# xmcd
#
# Track frame offsets:
#	182
#	14310
#	20725
#	33760
#	55477
#	65317
#	74190
#	87515
#	106207
#	121572
#	132572
#	137065
#	148832
#	158477
#	172292
#	179092
#	188562
#	197275
#	206927
#	220005
#	226597
#	238452
#
# Disc length: 3367 seconds
#
# Revision: 1
# Processed by: cddbd v1.5.2PL0 Copyright (c) Steve Scherf et al.
# Submitted via: audiograbber 1.83.01
#
DISCID=490d2516
DTITLE=Pioneer Brass - A Pioneer Brass Christmas
DYEAR=1994
DGENRE=Classical
TTITLE0=Deck the Halls
TTITLE1=Jingle Bells
TTITLE2=Past Three O'Clock
TTITLE3=I Wonder as I Wander (alphorn)
TTITLE4=Up on the Housetop
TTITLE5=The Holly and the Ivy
TTITLE6=Ding Dong Merrily on High
TTITLE7=Once in Royal David's City
TTITLE8=The Wexford Carol
TTITLE9=Jolly Old St Nicholaus (alphorns)
TTITLE10=Jolly Old St Nichaolus
TTITLE11=Joy to the World
TTITLE12=It Came Upon the Midnight Clear
TTITLE13=Variations on O Tannenbaum
TTITLE14=Let it Snow
TTITLE15=From Every Spire on Christmas Eve
TTITLE16=I Saw Three Ships (alphorns)
TTITLE17=Fumeur Jingle Bells
TTITLE18=Gloucestershire Wassail
TTITLE19=Echo (Sonar) Carol
TTITLE20=Gliss King Winceslas
TTITLE21=Master in this Hall
EXTD=
EXTT0=
EXTT1=
EXTT2=
EXTT3=
EXTT4=
EXTT5=
EXTT6=
EXTT7=
EXTT8=
EXTT9=
EXTT10=
EXTT11=
EXTT12=
EXTT13=
EXTT14=
EXTT15=
EXTT16=
EXTT17=
EXTT18=
EXTT19=
EXTT20=
EXTT21=
PLAYORDER=
